%
M48
M72
T01C0.0320
T02C0.0400
T03C0.1260
%
T01
X5178Y3680
X6178Y3680
X7178Y3680
X8178Y3680
X9178Y3680
X10178Y3680
X11178Y3680
X12178Y3680
X13178Y3680
X14178Y3680
X14178Y6680
X13178Y6680
X12178Y6680
X11178Y6680
X10178Y6680
X9178Y6680
X8178Y6680
X7178Y6680
X6178Y6680
X5178Y6680
X4680Y10680
X6680Y10680
X8180Y10680
X10180Y10680
X11180Y10680
X14180Y10680
T02
X5180Y8680
X6180Y8680
X7180Y8680
X8180Y8680
X9180Y8680
X10180Y8680
X11180Y8680
X12180Y8680
X13180Y8680
X14180Y8680
X15790Y7460
X17570Y7460
X17570Y4900
X15790Y4900
X14180Y1680
X13180Y1680
X12180Y1680
X11180Y1680
X10180Y1680
X9180Y1680
X8180Y1680
X7180Y1680
X6180Y1680
X5180Y1680
X3180Y5180
X3180Y6180
X3180Y7180
X1180Y7180
X1180Y6180
X1180Y5180
T03
X2180Y2180
X2180Y10180
X16680Y10180
X16680Y2180
M30
